# xmcd
#
# Track frame offsets:
#	183
#	11320
#	34495
#	63120
#	91508
#	125695
#	140345
#	164533
#	193383
#	220683
#	229420
#	246483
#	261570
#	270933
#
# Disc length: 3881 seconds
#
# Revision: 0
# Processed by: cddbd v1.5.1PL0 Copyright (c) Steve Scherf et al.
# Submitted via: audiograbber 1.83.01
#
DISCID=cb0f270e
DTITLE=Memphis all Stars Blues Band - One Nigth in Memphis
DYEAR=1991
DGENRE=Soul
TTITLE0=Memphis All Stars Blues Band - Theme From Shaft
TTITLE1=Ruby Wilson - The Dock Of The Bay
TTITLE2=Ruby Wilson - A Natural Woman
TTITLE3=Rufus Thomas - Walking The Dog
TTITLE4=Rufus Thomas - Push And Pull
TTITLE5=Memphis All Stars Blues Band - Soul Finger
TTITLE6=Carla Thomas - Tramp
TTITLE7=J.Blackfoot - It Ain`t Always What You Do
TTITLE8=J.Blackfoot - Taxi
TTITLE9=J.Blackfoot - Hearsay
TTITLE10=J.Blackfoot - Soul Man
TTITLE11=J.Blackfoot - You Don`t Know Like I Know
TTITLE12=J.Blackfoot - Who`s Making Love
TTITLE13=J.Blackfoot - I Can`t Turn You Loose
EXTD=
EXTT0=
EXTT1=
EXTT2=
EXTT3=
EXTT4=
EXTT5=
EXTT6=
EXTT7=
EXTT8=
EXTT9=
EXTT10=
EXTT11=
EXTT12=
EXTT13=
PLAYORDER=
